<svg id="OBJECTS" xmlns="http://www.w3.org/2000/svg" xmlns:xlink="http://www.w3.org/1999/xlink" viewBox="0 0 317.96 397.72"><defs><style>.cls-1{fill:#87c0c7;}.cls-2{fill:#6badb5;}.cls-3{fill:#472239;}.cls-4{fill:#a1384e;}.cls-5{fill:#d4536d;}.cls-6{fill:#f76f8a;}.cls-7{fill:#fff;}.cls-8{fill:#b2d9de;}.cls-9{fill:url(#linear-gradient);}.cls-10{opacity:0.6;fill:url(#Degradado_sin_nombre_11);}</style><linearGradient id="linear-gradient" x1="251.58" y1="167.64" x2="251.58" y2="361.56" gradientUnits="userSpaceOnUse"><stop offset="0" stop-color="#ffe092"/><stop offset="1" stop-color="#ffe092" stop-opacity="0.3"/></linearGradient><linearGradient id="Degradado_sin_nombre_11" x1="250" y1="183.97" x2="250" y2="398.77" gradientUnits="userSpaceOnUse"><stop offset="0" stop-color="#fff"/><stop offset="1" stop-color="#fff" stop-opacity="0"/></linearGradient></defs><circle class="cls-1" cx="158.98" cy="75.77" r="75.77"/><path class="cls-2" d="M250,96.73c-23.48,0-45.33-4.48-63.66-12.19a75.77,75.77,0,1,0,127.32,0C295.33,92.25,273.48,96.73,250,96.73Z" transform="translate(-91.02 -49.85)"/><path class="cls-3" d="M250,101.65c-60.3,0-116.35,11.8-151.2,39.3-7.73,6.09-14.77,14.88,5.34,24.8C144,185.39,189.7,197.56,250,197.56s106.05-12.17,145.86-31.81C416,155.83,408.93,147,401.2,141,366.35,113.45,310.3,101.65,250,101.65Z" transform="translate(-91.02 -49.85)"/><path class="cls-4" d="M250,112.43c-57.27,0-108.82,17.46-144.8,38.93-7.2,4.3-7.2,10.81,0,15.11,36,21.47,87.53,34.93,144.8,34.93s108.82-13.46,144.8-34.93c7.2-4.3,7.2-10.81,0-15.11C358.82,129.89,307.27,112.43,250,112.43Z" transform="translate(-91.02 -49.85)"/><path class="cls-5" d="M250,132.93c-64.48,0-118,18.38-128,42.46q3.77,1.77,7.69,3.44c6.59-21.69,57.92-38.57,120.28-38.57s113.69,16.88,120.28,38.57q3.93-1.67,7.69-3.44C368,151.31,314.48,132.93,250,132.93Z" transform="translate(-91.02 -49.85)"/><path class="cls-3" d="M320.56,177.44c0,12.61-20.65,27.06-70.56,27.06-48.25,0-70.65-13.37-70.56-27.06.08-12.6,31.59-22.81,70.56-22.81S320.56,164.84,320.56,177.44Z" transform="translate(-91.02 -49.85)"/><ellipse class="cls-5" cx="158.98" cy="133.72" rx="64.73" ry="20.93"/><ellipse class="cls-6" cx="158.98" cy="135.72" rx="33.85" ry="11"/><ellipse class="cls-7" cx="158.98" cy="135.72" rx="26.1" ry="7.8"/><ellipse class="cls-7" cx="158.98" cy="120.55" rx="6.46" ry="3.06"/><path class="cls-7" d="M253.27,198.73c0,.86-1.46,1.55-3.27,1.55s-3.27-.69-3.27-1.55,1.46-1.55,3.27-1.55S253.27,197.88,253.27,198.73Z" transform="translate(-91.02 -49.85)"/><path class="cls-7" d="M227.61,172.94c.16,1.25-2.11,2.59-5.09,3s-5.53-.29-5.69-1.54,2.11-2.59,5.08-3S227.44,171.68,227.61,172.94Z" transform="translate(-91.02 -49.85)"/><path class="cls-7" d="M209.64,184.06c0,1.26-2.43,2.28-5.43,2.28s-5.44-1-5.44-2.28,2.43-2.29,5.44-2.29S209.64,182.79,209.64,184.06Z" transform="translate(-91.02 -49.85)"/><path class="cls-7" d="M226.66,196.43c-.09,1-2.15,1.7-4.61,1.48s-4.36-1.22-4.27-2.25,2.15-1.7,4.6-1.48S226.75,195.4,226.66,196.43Z" transform="translate(-91.02 -49.85)"/><path class="cls-7" d="M272.39,172.94c-.16,1.25,2.11,2.59,5.09,3s5.53-.29,5.69-1.54-2.11-2.59-5.08-3S272.56,171.68,272.39,172.94Z" transform="translate(-91.02 -49.85)"/><path class="cls-7" d="M290.36,184.06c0,1.26,2.43,2.28,5.43,2.28s5.44-1,5.44-2.28-2.43-2.29-5.44-2.29S290.36,182.79,290.36,184.06Z" transform="translate(-91.02 -49.85)"/><path class="cls-7" d="M273.34,196.43c.09,1,2.15,1.7,4.61,1.48s4.36-1.22,4.27-2.25-2.15-1.7-4.6-1.48S273.25,195.4,273.34,196.43Z" transform="translate(-91.02 -49.85)"/><path class="cls-8" d="M250,53a76.2,76.2,0,0,0-17.27,2,3.07,3.07,0,0,0-1,5.54c4.55,3,11.06,4.92,18.3,4.92s13.75-1.89,18.3-4.92a3.07,3.07,0,0,0-1-5.54A76.2,76.2,0,0,0,250,53Z" transform="translate(-91.02 -49.85)"/><path class="cls-9" d="M377.82,368.41a3.27,3.27,0,0,0,0-.54,6,6,0,0,0-1.06-2.29L280.05,187.94h0c0-5.62-12.77-10.17-28.47-10.17s-28.42,4.55-28.47,10.17h0L126.45,365.58a6,6,0,0,0-1.07,2.29,4.9,4.9,0,0,0,0,.54l-.15.4h.13c.05,12.95,52.65,50,126.26,50s126.21-37,126.27-50H378Z" transform="translate(-91.02 -49.85)"/><path class="cls-10" d="M276.1,185.55h0c0-4.29-11.71-7.77-26.1-7.77s-26.06,3.48-26.1,7.77h0a2.31,2.31,0,0,0,0,.46L250,447.57h0L276.05,186a2.31,2.31,0,0,0,.05-.46Z" transform="translate(-91.02 -49.85)"/></svg>